<svg xmlns="http://www.w3.org/2000/svg" width="19" height="19" viewBox="0 0 19 19" fill="none">
  <path d="M13.6224 7.35488C13.9316 7.66404 13.9316 8.1653 13.6224 8.47446C13.3133 8.78363 12.812 8.78363 12.5029 8.47446L10.2934 6.26497V11.8749C10.2934 12.3121 9.93893 12.6666 9.5017 12.6666C9.06447 12.6666 8.71003 12.3121 8.71003 11.8749V6.26489L6.49892 8.47601C6.18976 8.78517 5.6885 8.78518 5.37933 8.47601C5.07017 8.16685 5.07017 7.66559 5.37933 7.35642L8.94187 3.79389C9.09033 3.64542 9.2917 3.56201 9.50166 3.56201C9.71162 3.56201 9.91299 3.64542 10.0615 3.79389L13.6224 7.35488Z" fill="#6F767E"/>
  <path fill-rule="evenodd" clip-rule="evenodd" d="M3.16667 11.0835C3.60389 11.0835 3.95833 11.4379 3.95833 11.8752V13.4585C3.95833 13.8957 4.31277 14.2502 4.75 14.2502H14.25C14.6872 14.2502 15.0417 13.8957 15.0417 13.4585V11.8752C15.0417 11.4379 15.3961 11.0835 15.8333 11.0835C16.2706 11.0835 16.625 11.4379 16.625 11.8752V13.4585C16.625 14.7702 15.5617 15.8335 14.25 15.8335H4.75C3.43832 15.8335 2.375 14.7702 2.375 13.4585V11.8752C2.375 11.4379 2.72944 11.0835 3.16667 11.0835Z" fill="#6F767E"/>
</svg>