<svg width="42" height="39" viewBox="0 0 42 39" fill="none" xmlns="http://www.w3.org/2000/svg">
<path fill-rule="evenodd" clip-rule="evenodd" d="M36.4945 19.5C36.4945 19.1347 36.2801 18.8805 35.8514 18.372C33.6874 15.8055 27.8551 9.75 21 9.75C14.1448 9.75 8.31256 15.8055 6.14854 18.372C5.71984 18.8805 5.50549 19.1347 5.50549 19.5C5.50549 19.8653 5.71984 20.1195 6.14854 20.628C8.31256 23.1945 14.1448 29.25 21 29.25C27.8551 29.25 33.6874 23.1945 35.8514 20.628C36.2801 20.1195 36.4945 19.8653 36.4945 19.5ZM21 24.375C23.8995 24.375 26.25 22.1924 26.25 19.5C26.25 16.8076 23.8995 14.625 21 14.625C18.1005 14.625 15.75 16.8076 15.75 19.5C15.75 22.1924 18.1005 24.375 21 24.375Z" fill="#595959"/>
</svg>
