<svg width="25" height="24" viewBox="0 0 25 24" fill="none" xmlns="http://www.w3.org/2000/svg">
<path d="M8.59375 8.25V6C8.59375 5.40326 8.8308 4.83097 9.25276 4.40901C9.67472 3.98705 10.247 3.75 10.8438 3.75H13.8438C14.4405 3.75 15.0128 3.98705 15.4347 4.40901C15.8567 4.83097 16.0938 5.40326 16.0938 6C16.0938 6.59674 15.8567 7.16903 15.4347 7.59099C15.0128 8.01295 14.4405 8.25 13.8438 8.25H4.09375V16.5C4.09375 17.4946 4.48884 18.4484 5.1921 19.1517C5.89536 19.8549 6.84919 20.25 7.84375 20.25H16.8438C17.8383 20.25 18.7921 19.8549 19.4954 19.1517C20.1987 18.4484 20.5938 17.4946 20.5938 16.5V8.25H17.8438" stroke="#111111" stroke-width="1.5"/>
</svg>
