<svg width="25" height="24" viewBox="0 0 25 24" fill="none" xmlns="http://www.w3.org/2000/svg">
<path d="M17.1377 3.75002C18.4617 3.75002 19.7057 4.26602 20.6417 5.20102C21.5699 6.13093 22.0912 7.39113 22.0912 8.70502C22.0912 10.0189 21.5699 11.2791 20.6417 12.209L12.3437 20.508L4.04471 12.209C3.11682 11.2791 2.5957 10.0192 2.5957 8.70552C2.5957 7.39188 3.11682 6.13189 4.04471 5.20202C4.50374 4.74032 5.04979 4.37425 5.65126 4.12501C6.25272 3.87578 6.89765 3.74832 7.54871 3.75002C8.87271 3.75002 10.1167 4.26602 11.0527 5.20102L11.8127 5.96102L12.3437 6.49202L12.8737 5.96102L13.6337 5.20102C14.0929 4.73963 14.639 4.37384 15.2405 4.12478C15.8419 3.87573 16.4867 3.74835 17.1377 3.75002Z" stroke="#111111" stroke-width="1.5"/>
</svg>
