<svg width="25" height="24" viewBox="0 0 25 24" fill="none" xmlns="http://www.w3.org/2000/svg">
<path d="M14.3058 16.296C13.2597 16.9224 12.063 17.2521 10.8438 17.25C9.95715 17.2512 9.07905 17.0772 8.25993 16.7379C7.44082 16.3986 6.69683 15.9008 6.07076 15.273C5.44299 14.6469 4.94515 13.9029 4.60587 13.0838C4.26659 12.2647 4.09255 11.3866 4.09376 10.5C4.09376 8.63601 4.84876 6.94901 6.07076 5.72701C6.69683 5.09924 7.44082 4.6014 8.25993 4.26212C9.07905 3.92284 9.95715 3.7488 10.8438 3.75001C12.7078 3.75001 14.3948 4.50501 15.6168 5.72701C16.2445 6.35308 16.7424 7.09707 17.0816 7.91618C17.4209 8.7353 17.595 9.6134 17.5938 10.5C17.5955 11.6974 17.2776 12.8736 16.6728 13.907C16.1558 14.789 16.2388 15.895 16.9618 16.618L20.8148 20.471" stroke="#111111" stroke-width="1.5"/>
</svg>
