<svg width="17" height="15" viewBox="0 0 17 15" fill="none" xmlns="http://www.w3.org/2000/svg">
<path d="M8.31512 9.17717C9.84533 9.17717 11.0858 8.07982 11.0858 6.72617C11.0858 5.37253 9.84533 4.27518 8.31512 4.27518C6.78491 4.27518 5.54443 5.37253 5.54443 6.72617C5.54443 8.07982 6.78491 9.17717 8.31512 9.17717Z" fill="#353535"/>
<path d="M16.1223 5.14466C15.048 3.59685 12.6042 1 8.31517 1C4.02613 1 1.58237 3.59685 0.508029 5.14466C-0.169343 6.11385 -0.169343 7.33847 0.508029 8.30769C1.58237 9.8555 4.02613 12.4524 8.31517 12.4524C12.6042 12.4524 15.048 9.8555 16.1223 8.30769C16.7997 7.33847 16.7997 6.11385 16.1223 5.14466ZM8.31517 10.4027C6.01986 10.4027 4.15912 8.75663 4.15912 6.72616C4.15912 4.69569 6.01986 3.04965 8.31517 3.04965C10.6105 3.04965 12.4712 4.69569 12.4712 6.72616C12.4689 8.75579 10.6095 10.4006 8.31517 10.4027Z" fill="#353535"/>
<line x1="15" y1="0.707107" x2="1.70711" y2="14" stroke="#353535" stroke-linecap="round"/>
</svg>
