<svg width="17" height="12" viewBox="0 0 17 12" fill="none" xmlns="http://www.w3.org/2000/svg">
<path d="M8.31512 8.17714C9.84533 8.17714 11.0858 7.07979 11.0858 5.72614C11.0858 4.37249 9.84533 3.27515 8.31512 3.27515C6.78491 3.27515 5.54443 4.37249 5.54443 5.72614C5.54443 7.07979 6.78491 8.17714 8.31512 8.17714Z" fill="#353535"/>
<path d="M16.1223 4.14466C15.048 2.59685 12.6042 0 8.31517 0C4.02613 0 1.58237 2.59685 0.508029 4.14466C-0.169343 5.11385 -0.169343 6.33847 0.508029 7.30769C1.58237 8.8555 4.02613 11.4524 8.31517 11.4524C12.6042 11.4524 15.048 8.8555 16.1223 7.30769C16.7997 6.33847 16.7997 5.11385 16.1223 4.14466ZM8.31517 9.40267C6.01986 9.40267 4.15912 7.75663 4.15912 5.72616C4.15912 3.69569 6.01986 2.04965 8.31517 2.04965C10.6105 2.04965 12.4712 3.69569 12.4712 5.72616C12.4689 7.75579 10.6095 9.40063 8.31517 9.40267Z" fill="#353535"/>
</svg>
