<svg width="17" height="16" viewBox="0 0 17 16" fill="none" xmlns="http://www.w3.org/2000/svg">
<path d="M13.2143 15.3263C13.2591 15.4649 13.1001 15.5796 12.9827 15.4933L8.92957 12.5144C8.70054 12.3461 8.38871 12.3461 8.15968 12.5144L4.10653 15.4933C3.98919 15.5796 3.83016 15.4649 3.87498 15.3263L5.43509 10.5034C5.52146 10.2364 5.42671 9.9441 5.20012 9.77853L1.13695 6.8097C1.01979 6.72409 1.08035 6.53858 1.22545 6.53858H6.23485C6.51732 6.53858 6.76746 6.35616 6.85377 6.0872L8.4018 1.26325C8.44637 1.12436 8.64288 1.12436 8.68745 1.26325L10.2355 6.0872C10.3218 6.35615 10.5719 6.53858 10.8544 6.53858H15.8632C16.0083 6.53858 16.0689 6.72408 15.9517 6.80969L11.8891 9.77854C11.6625 9.94411 11.5678 10.2364 11.6542 10.5034L13.2143 15.3263Z" fill="#111111" stroke="#757575" stroke-width="0.5"/>
</svg>
